<svg id="Layer_1" data-name="Layer 1" xmlns="http://www.w3.org/2000/svg" viewBox="0 0 500 500"><defs><style>.cls-1{fill:#56c4c5;}.cls-2{fill:#48a5a2;}.cls-3,.cls-5{fill:none;}.cls-3{stroke:#fafafa;stroke-linecap:round;stroke-linejoin:round;stroke-width:4px;}.cls-4{fill:#f2dc38;}.cls-5{stroke:#f2dc38;stroke-miterlimit:10;stroke-width:2px;}</style></defs><path class="cls-1" d="M250,485A235,235,0,0,1,83.83,83.83,235,235,0,1,1,416.17,416.17,233.45,233.45,0,0,1,250,485Z"/><path class="cls-2" d="M250,30a220.06,220.06,0,0,1,85.62,422.72A220.06,220.06,0,0,1,164.38,47.28,218.46,218.46,0,0,1,250,30m0-30C111.93,0,0,111.93,0,250S111.93,500,250,500,500,388.07,500,250,388.07,0,250,0Z"/><path class="cls-3" d="M435.32,237a8.35,8.35,0,0,1-.22,2c-.81,2.24.77,3.92,1.94,5,.86.78,3.21.6,4.57-.64,1.15-1,2.46-2.08,3.93-1.49,2.07.83,1.7,2.91,1.59,4.66-.19,3,.57,6.14-.46,8.94-2,.77-2.2-2-4.81-.35-2.27,5.25,4.08,8.82,5.39,13.86-.64.11-1.2.26-1.69.34-4.77.79-7,4.16-4.17,8.25,3.87,5.64,3,10.62,1.19,16.71-7.32,25.22-16.37,49.67-31,71.64a169.58,169.58,0,0,1-46.8,46.59,202.17,202.17,0,0,1-61.1,28,252.94,252.94,0,0,1-31.54,6.32,172.59,172.59,0,0,1-41,.6,185.31,185.31,0,0,1-50.83-12.59c-28.23-11.37-54-26.65-74.9-49.23a189.18,189.18,0,0,1-31.73-45.81C68,328,61.92,316.21,58.76,303.25c-1.45-5.93-3.08-11.84-4.6-17.76"/><path class="cls-3" d="M413.25,144.77c-2.77-2.79-6.67-3.92-9.55-6.61-.86-.8-.77-1.8-1.51-2.48,1.14-1.28,3.47-1.05,4-3.38-1.47-3.62-4.48-6.27-7.13-9.24-10.59-11.88-21.3-23.59-33.85-33.56A138.89,138.89,0,0,0,326.9,68.36a282.55,282.55,0,0,0-49.23-13.55,177.71,177.71,0,0,0-39.43-3,188.61,188.61,0,0,0-40.61,6.6A183.87,183.87,0,0,0,125.06,97c-17.21,14.78-32.21,31.3-43.75,50.88-.94,1.6-1.4,3-.75,4.76"/><path class="cls-3" d="M217.34,72.63c-3.35,3.65-3.43,5.41,1.24,6.47,6.46,1.47,7.56,5.35,7.95,10.87.26,3.64,2.67,6.62,5.42,9,2.19,2,2.17,3.6,0,5.57a21.23,21.23,0,0,1-6.34,3.88c-10.58,4.33-20,10.3-27.58,19-.68.78-1.37,1.54-2,2.37-2.92,4.09-2.8,4.73,1.15,7.9a13.74,13.74,0,0,1,1.75,2.08,13.23,13.23,0,0,1-10.79,4.17c-3.6-.19-5.35-3.31-3.94-6.66,1.63-3.88,5.19-6.1,7.92-8.77-.11-2.53-1.74-2.38-3.2-2.25-9.39.84-18.62,2.25-26.81,7.45-1.17.74-2.59,1.81-3.89,1.12-1.72-.91-1.65-2.89-1.62-4.65a11,11,0,0,1,2.85-7.4c8.29-8.31,15.8-17.58,26.34-23.3C190.42,97,195.27,95,200,92.73a12.92,12.92,0,0,0,3.11-1.62c1.11-1,3.35-1.43,2.73-3.48s-2.76-1.62-4.28-1.91c-1.81-.35-3.67-.37-5.53-.75-2.9-.58-5.49-.12-7.56,3-5.27,7.85-13.72,12.1-21.23,17.34-1.81,1.27-4.24,1.76-5.86-.73-1.22-1.88,0-3.66.86-5.07a16.8,16.8,0,0,1,10.14-7.62c1.76-.52,4.46-.74,4-3.9-5.14-2.84-13,3-16.33-5.08-.6,0-1.07-.14-1.38,0-6.35,3.26-12.34,7.07-17.29,12.26-1,1-2.42,2.54-1.58,4.24s2.44,2,4.28,2.06a54.5,54.5,0,0,1,6.7.75c2.94.44,4.53,3,3.08,5.46a18.46,18.46,0,0,1-4.72,5.48c-3.87,2.84-6.71,6.52-9.37,10.35-6.18,8.93-14.09,16.14-22.54,22.78-1.21,1-2.67,2.62-5,1-.42-4,1.43-7.33,3.92-10.41,1.61-2,3.17-3.93,2-6.78-2.36-1.21-3.28.9-4.31,2.08a22.35,22.35,0,0,0-2.81,4.69c-2.63,5.27-5.53,5.77-9.84,1.54a3.62,3.62,0,0,1-.69-1.48c-1.59.4-2.42.36-2.86.75-4.25,3.89-8.43,7.86-12.64,11.79-1.45,1.35-2.55,3-4.7,3.66-1.25.37-1.87,1.91-1.61,3.44"/><path class="cls-3" d="M224.44,171.57c-5.52,1-6.53-.2-6-6.31a20,20,0,0,1,1.64-7.49c1-2,1.81-3.66,4.32-4.43,5-1.53,8.47-5.16,11.49-9.34,3.57-4.94,7.59-9.05,14.13-10.41,6.71-1.39,12.52,0,18.15,3.32,1.28.75,2.31,1.92,3.57,2.71,3.14,2,5.31,1.63,7.86-1.17,1.25-1.38,2.34-2.92,3.57-4.32,2.74-3.14,2.65-3.19-.77-6-2.64-2.13-6.16-3.46-6.51-7.83a10.38,10.38,0,0,1,.32-3.91c.61-1.78,1.45-4.05,3.8-4.32s3,1.92,3.92,3.5c1.26,2.18,2.38,4.46,3.57,6.69.41.76.85,1.51,1.09,2a4.31,4.31,0,0,0,3.14-4.32,11.9,11.9,0,0,1,2.43-6.73,4.21,4.21,0,0,0,.08-5.12,62.71,62.71,0,0,1-3.19-6.28c-1.46-3-4.51-2.9-7.12-3.48-1.35-.3-2.76-.09-2.74-2,0-1.55,1.09-1.64,2.33-2.06a24.89,24.89,0,0,1,7.52-1.5c3.16-.06,6.32-.11,9.46-.41,3.86-.37,7.16-6,5.47-9.4-.79-1.59-2.45-2-4.28-2-2.9-.07-5.89.62-9-.62,1.22-3.71,5.92-3.48,7.11-7-1.2-3.27-4.07-4.58-7.15-5.75-7.5-2.84-15.11-5.4-21.74-10.16a6.48,6.48,0,0,0-5.88-.51,45.07,45.07,0,0,1-13.78,2.06c-8.69.1-17.45-.9-26,1.52A55,55,0,0,0,215,64.3c-1.36.7-2.81,1.06-3.27,3,1.52,2.68,4.63,3.24,6.85,5"/><path class="cls-3" d="M317.46,398.61a99.36,99.36,0,0,1,15.38-6.69c3.17-1,4-.32,3.94,2.75-.2,7.3-10.75,21-17.69,23.78-2.06.82-3.66.54-4.67-.62s-.68-3,.21-4.67c1.12-2.15,2.39-4.19,3.59-6.29,1.37-2.38.47-7.56-2-9.35-2-1.42-4.09-2.93-7.1-1.4a6.9,6.9,0,0,0-3.76,4.1c-1.42,5.43-5,8.35-10,10.26a6.73,6.73,0,0,0-4.44,5.06c-1.23,5-4.29,8.76-8.91,11.55-6.34,3.83-12.44,8.06-19.78,9.73-8.75,2-17.67,2.46-26.37.29-6.89-1.71-12-6.48-15.8-12.48-4-6.19-7.75-12.4-9.64-19.66-.39-1.51-.54-2.54.21-3.58,4.68-6.48,3.3-12.79,0-19.37a64.15,64.15,0,0,0-8-12.54c-2.91-3.51-4.55-7.25-3.92-11.86a8.28,8.28,0,0,0,0-3.14c-1.05-4-3-5.34-8.22-4.61-2.85.4-5.09-.54-5.79-2.55-2.2-6.34-7.56-6-12.37-6.15-8.74-.28-17.28-1-25.66-3.91a16,16,0,0,1-9.4-8c-5.08-9.61-8.85-19.78-12.66-29.94-2.74-7.32-1.36-14.08,2.43-20.48a124.38,124.38,0,0,1,17.33-22.87,11.42,11.42,0,0,1,5.46-3.32,8.38,8.38,0,0,0,5.6-5.35c2.21-6,6.52-9.21,13-10a23.83,23.83,0,0,1,9.76,1.18,22.78,22.78,0,0,0,9.15.73c5.66-.53,11.25-1.21,17-.7,7.47.66,10.44,3.61,10.21,11.08-.08,2.46.58,4.24,2.77,5.55,3.1,1.85,6.09,3.88,9.08,5.9,2.64,1.78,5.75,2.09,8.7,2.65,2.7.5,4.86-1.35,6.23-3.49,1.68-2.64,3.35-2.77,6.4-2.09,8.67,2,17.27,4.62,26.38,4.14,6.14-.32,11.8-8,9.85-13.84a2,2,0,0,0-2-1.6c-1.22-.06-1.53,1-1.93,1.63-2.67,4.32-5.56,5-8.64,1.48-2.41-2.79-5.17-3.13-8.35-2.67-2.68.38-5,1.77-7.5,2.72-1.12.42-.67,1.27-.78,2"/><path class="cls-3" d="M74.26,163.69c-6.77,16-13.9,31.95-18,48.91a114.9,114.9,0,0,0-3.28,26c-.05,6.31-.84,12.65.74,18.93.87,3.49,2.86,6.49,3.94,9.85,1.4,4.34,1.21,8.95,1.45,13.4.3,5.48,2.16,10.3,4.55,14.94,5.45,10.57,9.3,21.78,13.84,32.71a10.53,10.53,0,0,1,.6,5.55c-.46,3.69-3.32,2.08-5.43,2"/><path class="cls-3" d="M349.39,267.35c1,3.08,3.53,4.26,6.31,5.12,4.92,1.53,4.37,3.2,3.51,7.1-1.12,5.09-4.49,9-7.91,12.56-7.51,7.87-15.41,15.35-22.43,23.69a11.73,11.73,0,0,1-2.75,2.36c-4.14,2.54-6.77,1.92-9.79-2.77-2.35-3.65-4.18-7.63-6.38-11.38a23.53,23.53,0,0,0-6.27-7.53c-5.89-4.29-11.78-8.61-17-13.77-1.07-1.07-2.3-2.17-3.92-1.54-2.12.83-2,2.83-2,4.69,0,3.27,1.6,6,3.16,8.67,5.31,9.2,13,16.35,20.53,23.62,7.32,7.09,15.89,7.81,25.21,4.43,3.13-1.14,6.37-2.24,9.84-2.05,3.32.19,4,1,2.74,4.35a88.07,88.07,0,0,1-18.88,30.77A132.23,132.23,0,0,0,313,367.8c-6.53,8.76-5.78,17.83-2.28,27.27"/><path class="cls-3" d="M433,242.52c-1.45-1.71-2.83-3.47-4.35-5.11-3-3.24-4.71-2.71-6.74,1.54-1.75,3.67-1.67,7.66-2.17,11.47-.67,5.16-1.62,10.28-2.65,15.33-1.22,5.93-.75,11.29,2.08,16.6a19.82,19.82,0,0,1,1.52,15c-3.06.09-3.25-2.88-5.25-4.07-1.46-.45-1.84,2.06-3.33,1.68a7.44,7.44,0,0,1-3.91-3.15c-4.16-5.72-8.22-11.51-12.24-17.33a87,87,0,0,0-7.41-9.54c-3.19-3.46-7.12-3.12-10.71-2.49s-6.94,1-10.25-.24a8.58,8.58,0,0,0-8.66.9c-4.93,3.71-10.66,4.22-16.16,3.26a73.87,73.87,0,0,1-10.66-3c-1.58-.54-3.18-.46-3.82.57s-.26,2.48.56,3.9c3.38,5.83,10,5.93,13.09-.84"/><path class="cls-3" d="M413.25,140c4.49,2.59,6.41,7.1,8.7,11.41,5.11,9.66,10,19.38,13,30a4.49,4.49,0,0,1,.31,1.59c-.62,7,1.26,13.9,1.2,20.89a14.74,14.74,0,0,0,3.51,9.49c1.11,1.41,2.23,1.27,3.59.76"/><path class="cls-3" d="M193.3,179.45c-3.62,2.4-6.2,5.71-8.55,9.51,3.55,1.94,8.53-1.17,10.91,3.5-1,1.42-2.51,1.17-3.94,1.19-4.57.06-6.08,2-4.7,6.29.74,2.29,1.88,4.45,2.71,6.72,1.27,3.43-.33,5.62-3.92,6a15.77,15.77,0,0,1-7.06-.94c-5.59-2.15-8.48,1.34-11.46,4.84-4.87,5.73-3.71,9.19-.77,15,.9,1.78,2.76,3,3.13,5.14"/><path class="cls-3" d="M188.57,183a5.63,5.63,0,0,0-4.39.26A4.42,4.42,0,0,1,178.4,181c-.77-1.72.54-3.11,1.87-4.32a21.29,21.29,0,0,1,10.67-5.07c2-.36,4-.88,4.66-2.81,1.68-4.78,5.33-4.4,9.09-4.29,2.18,4.93-3.82,8.37-1.37,13.49,1.75,3.67.6,8.52,2.27,12.47,2.63.23,4-1.26,5.44-2.74,2.07-2.2,4.28-3.93,7.48-4.4s4.17-3.07,4.74-5.84a18.83,18.83,0,0,1,2-6.3"/><path class="cls-3" d="M215.37,222c-1.58,3.37-.18,7.41-2.62,11-5.86-4.09-.78-10-2.5-14.91-3.75-.34-7.37.75-11,1.18-2.85.33-4.08,2.61-4.26,5.08a4.8,4.8,0,0,1-3.62,4.77c-4.84,1.73-8.61,5.19-12.63,8.24"/><path class="cls-3" d="M235.87,232.67c.95-1.67.09-3-.81-4.33a46.76,46.76,0,0,0-10.76-10.86c-2.55,2.15-1.34,4.61-.18,6.46,2.62,4.17,7.18,6.22,11,9.12"/><path class="cls-3" d="M440.44,198.77c1.59,4.9,3.61,9.69,3.55,15"/><path class="cls-3" d="M215,218.87c0,1.4-.07,2.52,1.49,3.66a31.2,31.2,0,0,1,7.57,7.38c1.53,2.2,2.72,4-.3,6.42-2.66,2.1-2.19,5.06.31,7a3.43,3.43,0,0,0,4.34,0c3.8-2.44,5.78-6.11,7.08-10.26"/><circle class="cls-4" cx="200.05" cy="183.84" r="4.39"/><circle class="cls-4" cx="237.72" cy="208.03" r="4.39"/><circle class="cls-4" cx="401.08" cy="229.06" r="4.39"/><circle class="cls-4" cx="72.65" cy="334.06" r="4.39"/><circle class="cls-4" cx="67.32" cy="177.47" r="4.39"/><circle class="cls-4" cx="261.65" cy="401.22" r="4.39"/><circle class="cls-4" cx="380.45" cy="102.16" r="4.39"/><line class="cls-5" x1="261.65" y1="401.22" x2="237.72" y2="208.03"/><line class="cls-5" x1="72.65" y1="334.06" x2="261.65" y2="401.22"/><line class="cls-5" x1="67.32" y1="177.47" x2="72.65" y2="334.06"/><line class="cls-5" x1="200.05" y1="183.84" x2="74.5" y2="334.71"/><line class="cls-5" x1="237.72" y1="208.03" x2="200.05" y2="183.84"/><line class="cls-5" x1="380.45" y1="102.16" x2="237.72" y2="208.03"/><line class="cls-5" x1="401.08" y1="229.06" x2="237.72" y2="208.03"/><circle class="cls-4" cx="409.86" cy="372.03" r="4.39"/><line class="cls-5" x1="401.08" y1="229.06" x2="409.86" y2="372.03"/></svg>